{"title":"The.Amazing.Race.Asia.S04E06-LCP.avi","uid":5920051,"size":368733324,"categoryP":"video","categoryS":"tv_shows","magnet":"?xt=urn:btih:3617bf0dab95367b265194d3f50cfaa2b8cffb1b&amp;dn=The.Amazing.Race.Asia.S04E06-LCP.avi&amp;tr=udp%3A%2F%2Ftracker.openbittorrent.com%3A80&amp;tr=udp%3A%2F%2Fopen.demonii.com%3A1337&amp;tr=udp%3A%2F%2Ftracker.coppersurfer.tk%3A6969&amp;tr=udp%3A%2F%2Fexodus.desync.com%3A6969","seeders":0,"leechers":1,"uploader":"LCP-1","files":1,"time":1288373299,"description":"Alternate release... enjoy!\n\nVideo\nFormat                           : MPEG-4 Visual\nCodec ID                         : XVID\nDuration                         : 47mn 13s\nBit rate                         : 932 Kbps\nWidth                            : 624 pixels\nHeight                           : 352 pixels\nDisplay aspect ratio             : 16:9\nFrame rate                       : 25.000 fps\nBits/(Pixel*Frame)               : 0.170\nStream size                      : 315 MiB (90%)\n\nAudio\nFormat                           : MPEG Audio\nFormat profile                   : Layer 3\nMode                             : Joint stereo\nCodec ID/Hint                    : MP3\nDuration                         : 47mn 13s\nBit rate mode                    : Constant\nBit rate                         : 96.0 Kbps\nChannel(s)                       : 2 channels\nSampling rate                    : 48.0 KHz\nBit depth                        : 16 bits\nStream size                      : 32.4 MiB (9%)\n","torrent":{"xt":"urn:btih:3617bf0dab95367b265194d3f50cfaa2b8cffb1b","amp;dn":"The.Amazing.Race.Asia.S04E06-LCP.avi","amp;tr":["udp%3A%2F%2Ftracker.openbittorrent.com%3A80","udp%3A%2F%2Fopen.demonii.com%3A1337","udp%3A%2F%2Ftracker.coppersurfer.tk%3A6969","udp%3A%2F%2Fexodus.desync.com%3A6969"],"infoHash":"3617bf0dab95367b265194d3f50cfaa2b8cffb1b","infoHashBuffer":{"type":"Buffer","data":[54,23,191,13,171,149,54,123,38,81,148,211,245,12,250,162,184,207,251,27]},"announce":[],"urlList":[]}}